<svg width="41" height="54" viewBox="0 0 41 54" fill="none" xmlns="http://www.w3.org/2000/svg">
<path fill-rule="evenodd" clip-rule="evenodd" d="M14.9639 40.1206C14.9639 42.9952 17.2941 45.3254 20.1687 45.3254C23.0432 45.3254 25.3735 42.9952 25.3735 40.1206V29.2772C25.3735 28.7982 24.9851 28.4098 24.506 28.4098C24.0269 28.4098 23.6386 28.7982 23.6386 29.2772V40.1206C23.6386 42.037 22.085 43.5905 20.1687 43.5905C18.2523 43.5905 16.6988 42.037 16.6988 40.1206V39.6327C16.6988 39.1536 16.3104 38.7652 15.8313 38.7652C15.3522 38.7652 14.9639 39.1536 14.9639 39.6327V40.1206Z" fill="#7FD9FF"/>
<path fill-rule="evenodd" clip-rule="evenodd" d="M15.8313 36.1626C16.3104 36.1626 16.6988 35.7742 16.6988 35.2951V29.2771C16.6988 28.798 16.3104 28.4096 15.8313 28.4096C15.3522 28.4096 14.9639 28.798 14.9639 29.2771V35.2951C14.9639 35.7742 15.3522 36.1626 15.8313 36.1626Z" fill="#9BDBB3"/>
<path fill-rule="evenodd" clip-rule="evenodd" d="M10.6265 40.1204C10.6265 45.3904 14.8986 49.6626 20.1686 49.6626C25.4386 49.6626 29.7108 45.3904 29.7108 40.1204V33.8313C29.7108 33.3522 29.3224 32.9638 28.8433 32.9638C28.3642 32.9638 27.9759 33.3522 27.9759 33.8313V40.1204C27.9759 44.4322 24.4804 47.9277 20.1686 47.9277C15.8568 47.9277 12.3614 44.4322 12.3614 40.1204V38.0602C12.3614 37.5811 11.973 37.1927 11.4939 37.1927C11.0148 37.1927 10.6265 37.5811 10.6265 38.0602L10.6265 40.1204Z" fill="#FFE483"/>
<path fill-rule="evenodd" clip-rule="evenodd" d="M11.4939 34.2651C11.973 34.2651 12.3614 33.8768 12.3614 33.3977V25.97C12.3614 25.4909 11.973 25.1025 11.4939 25.1025C11.0148 25.1025 10.6265 25.4909 10.6265 25.97V33.3977C10.6265 33.8768 11.0148 34.2651 11.4939 34.2651Z" fill="#7FD9FF"/>
<path fill-rule="evenodd" clip-rule="evenodd" d="M20.1687 12.1448C20.6478 12.1448 21.0362 11.7564 21.0362 11.2773V1.03032C21.0362 0.551227 20.6478 0.162848 20.1687 0.162848C19.6896 0.162848 19.3013 0.551227 19.3013 1.03032V11.2773C19.3013 11.7564 19.6896 12.1448 20.1687 12.1448Z" fill="#7FD9FF"/>
<path fill-rule="evenodd" clip-rule="evenodd" d="M28.8433 30.3613C29.3224 30.3613 29.7108 29.9729 29.7108 29.4939V26.024C29.7108 25.5449 29.3224 25.1565 28.8433 25.1565C28.3642 25.1565 27.9758 25.5449 27.9758 26.024V29.4939C27.9758 29.9729 28.3642 30.3613 28.8433 30.3613Z" fill="#9BDBB3"/>
<path d="M34.0481 40.1206V21.5784C34.0481 21.0993 33.6597 20.7109 33.1806 20.7109C32.7015 20.7109 32.3132 21.0993 32.3132 21.5784V40.1206C32.3132 42.5835 31.58 44.8751 30.3201 46.7892L31.755 47.7651C33.2043 45.5729 34.0481 42.9453 34.0481 40.1206Z" fill="#7FD9FF"/>
<path d="M6.28931 40.0663C6.28931 47.727 12.4987 54 20.1688 54C22.3465 54 24.4069 53.4985 26.2411 52.6047L25.4821 51.0442C23.8772 51.8263 22.0742 52.2651 20.1688 52.2651C13.4662 52.2651 8.02425 46.7782 8.02425 40.0663C8.02425 39.5872 7.63587 39.1988 7.15678 39.1988C6.67769 39.1988 6.28931 39.5872 6.28931 40.0663Z" fill="#9BDBB3"/>
<path fill-rule="evenodd" clip-rule="evenodd" d="M7.15678 35.0784C7.63587 35.0784 8.02425 34.69 8.02425 34.2109V21.6868C8.02425 21.2077 7.63587 20.8193 7.15678 20.8193C6.67769 20.8193 6.28931 21.2077 6.28931 21.6868V34.2109C6.28931 34.69 6.67769 35.0784 7.15678 35.0784Z" fill="#FFE483"/>
<path fill-rule="evenodd" clip-rule="evenodd" d="M20.1688 38.7651C20.6479 38.7651 21.0362 38.3768 21.0362 37.8977L21.0362 26.0242C21.0362 25.5451 20.6478 25.1567 20.1687 25.1567C19.6896 25.1567 19.3013 25.5451 19.3013 26.0242L19.3013 37.8977C19.3013 38.3768 19.6897 38.7651 20.1688 38.7651Z" fill="#FFE483"/>
<path d="M8.89151 34.3735C8.89151 33.4153 8.11475 32.6385 7.15657 32.6385C6.19839 32.6385 5.42163 33.4153 5.42163 34.3735C5.42163 35.3316 6.19839 36.1084 7.15657 36.1084C8.11475 36.1084 8.89151 35.3316 8.89151 34.3735Z" fill="#FFD026"/>
<path d="M13.2289 25.5903C13.2289 24.6321 12.4522 23.8553 11.494 23.8553C10.5358 23.8553 9.75903 24.6321 9.75903 25.5903C9.75903 26.5484 10.5358 27.3252 11.494 27.3252C12.4522 27.3252 13.2289 26.5484 13.2289 25.5903Z" fill="#2BB5EF"/>
<path fill-rule="evenodd" clip-rule="evenodd" d="M-3.79183e-08 20.8194C-5.886e-08 21.2985 0.388379 21.6868 0.86747 21.6868L13.6084 21.6868C14.0875 21.6868 14.4759 21.2985 14.4759 20.8194C14.4759 20.3403 14.0875 19.9519 13.6084 19.9519L0.86747 19.9519C0.388379 19.9519 -1.69766e-08 20.3403 -3.79183e-08 20.8194Z" fill="#FFE483"/>
<path fill-rule="evenodd" clip-rule="evenodd" d="M16.2651 20.8194C16.2651 21.2985 16.6535 21.6868 17.1326 21.6868L39.4157 21.6868C39.8948 21.6868 40.2832 21.2985 40.2832 20.8194C40.2832 20.3403 39.8948 19.9519 39.4157 19.9519L17.1326 19.9519C16.6535 19.9519 16.2651 20.3403 16.2651 20.8194Z" fill="#7FD9FF"/>
<path d="M13.2289 37.735C13.2289 36.7768 12.4522 36.0001 11.494 36.0001C10.5358 36.0001 9.75903 36.7768 9.75903 37.735C9.75903 38.6932 10.5358 39.47 11.494 39.47C12.4522 39.47 13.2289 38.6932 13.2289 37.735Z" fill="#FFD026"/>
<path d="M21.9037 37.735C21.9037 36.7768 21.127 36.0001 20.1688 36.0001C19.2106 36.0001 18.4338 36.7768 18.4338 37.735C18.4338 38.6932 19.2106 39.47 20.1688 39.47C21.127 39.47 21.9037 38.6932 21.9037 37.735Z" fill="#FFD026"/>
<path d="M21.9037 25.5903C21.9037 24.6321 21.127 23.8553 20.1688 23.8553C19.2106 23.8553 18.4338 24.6321 18.4338 25.5903C18.4338 26.5484 19.2106 27.3252 20.1688 27.3252C21.127 27.3252 21.9037 26.5484 21.9037 25.5903Z" fill="#FFD026"/>
<path fill-rule="evenodd" clip-rule="evenodd" d="M19.3013 11.2771C19.3013 11.7562 19.6896 12.1446 20.1687 12.1446L30.741 12.1446C31.2201 12.1446 31.6085 11.7562 31.6085 11.2771C31.6085 10.798 31.2201 10.4097 30.741 10.4097L20.1687 10.4097C19.6896 10.4097 19.3013 10.798 19.3013 11.2771Z" fill="#7FD9FF"/>
<path fill-rule="evenodd" clip-rule="evenodd" d="M8.6748 11.2771C8.6748 11.7562 9.06318 12.1446 9.54227 12.1446L15.8856 12.1446C16.3647 12.1446 16.7531 11.7562 16.7531 11.2771C16.7531 10.798 16.3647 10.4097 15.8856 10.4097L9.54227 10.4097C9.06318 10.4097 8.6748 10.798 8.6748 11.2771Z" fill="#FFE483"/>
<path d="M30.5783 33.8312C30.5783 32.873 29.8015 32.0963 28.8433 32.0963C27.8852 32.0963 27.1084 32.873 27.1084 33.8312C27.1084 34.7894 27.8852 35.5662 28.8433 35.5662C29.8015 35.5662 30.5783 34.7894 30.5783 33.8312Z" fill="#FFD026"/>
<path d="M30.5783 25.5903C30.5783 24.6321 29.8015 23.8553 28.8433 23.8553C27.8852 23.8553 27.1084 24.6321 27.1084 25.5903C27.1084 26.5484 27.8852 27.3252 28.8433 27.3252C29.8015 27.3252 30.5783 26.5484 30.5783 25.5903Z" fill="#16A75C"/>
<path fill-rule="evenodd" clip-rule="evenodd" d="M4.3374 16.0484C4.3374 16.5275 4.72578 16.9158 5.20487 16.9158L35.0784 16.9158C35.5575 16.9158 35.9458 16.5275 35.9458 16.0484C35.9458 15.5693 35.5575 15.1809 35.0784 15.1809L5.20487 15.1809C4.72578 15.1809 4.3374 15.5693 4.3374 16.0484Z" fill="#9BDBB3"/>
<path d="M17.5663 35.2409C17.5663 34.2827 16.7896 33.506 15.8314 33.506C14.8732 33.506 14.0964 34.2827 14.0964 35.2409C14.0964 36.1991 14.8732 36.9758 15.8314 36.9758C16.7896 36.9758 17.5663 36.1991 17.5663 35.2409Z" fill="#16A75C"/>
<path d="M17.5663 40.4457C17.5663 39.4875 16.7896 38.7108 15.8314 38.7108C14.8732 38.7108 14.0964 39.4875 14.0964 40.4457C14.0964 41.4039 14.8732 42.1807 15.8314 42.1807C16.7896 42.1807 17.5663 41.4039 17.5663 40.4457Z" fill="#2BB5EF"/>
<path d="M8.89151 40.0121C8.89151 39.0539 8.11475 38.2772 7.15657 38.2772C6.19839 38.2772 5.42163 39.0539 5.42163 40.0121C5.42163 40.9703 6.19839 41.7471 7.15657 41.7471C8.11475 41.7471 8.89151 40.9703 8.89151 40.0121Z" fill="#16A75C"/>
<path d="M27.5421 52.0483C27.5421 51.0901 26.7654 50.3133 25.8072 50.3133C24.849 50.3133 24.0723 51.0901 24.0723 52.0483C24.0723 53.0064 24.849 53.7832 25.8072 53.7832C26.7654 53.7832 27.5421 53.0064 27.5421 52.0483Z" fill="#16A75C"/>
<path d="M32.5299 47.4941C32.5299 46.5359 31.7532 45.7591 30.795 45.7591C29.8368 45.7591 29.0601 46.5359 29.0601 47.4941C29.0601 48.4522 29.8368 49.229 30.795 49.229C31.7532 49.229 32.5299 48.4522 32.5299 47.4941Z" fill="#2BB5EF"/>
<path d="M21.9037 11.2773C21.9037 10.3191 21.127 9.54233 20.1688 9.54233C19.2106 9.54233 18.4338 10.3191 18.4338 11.2773C18.4338 12.2354 19.2106 13.0122 20.1688 13.0122C21.127 13.0122 21.9037 12.2354 21.9037 11.2773Z" fill="#2BB5EF"/>
<path d="M21.9037 6.50603C21.9037 5.54785 21.127 4.77109 20.1688 4.77109C19.2106 4.77109 18.4338 5.54785 18.4338 6.50603C18.4338 7.46421 19.2106 8.24097 20.1688 8.24097C21.127 8.24097 21.9037 7.46421 21.9037 6.50603Z" fill="#2BB5EF"/>
<path d="M21.9037 1.73503C21.9037 0.77685 21.127 9.10759e-05 20.1688 9.10759e-05C19.2106 9.10759e-05 18.4338 0.77685 18.4338 1.73503C18.4338 2.69321 19.2106 3.46997 20.1688 3.46997C21.127 3.46997 21.9037 2.69321 21.9037 1.73503Z" fill="#2BB5EF"/>
<path d="M8.89151 20.8193C8.89151 19.8611 8.11475 19.0843 7.15657 19.0843C6.19839 19.0843 5.42163 19.8611 5.42163 20.8193C5.42163 21.7774 6.19839 22.5542 7.15657 22.5542C8.11475 22.5542 8.89151 21.7774 8.89151 20.8193Z" fill="#FFD026"/>
<path d="M34.9157 20.8193C34.9157 19.8611 34.1389 19.0843 33.1807 19.0843C32.2226 19.0843 31.4458 19.8611 31.4458 20.8193C31.4458 21.7774 32.2226 22.5542 33.1807 22.5542C34.1389 22.5542 34.9157 21.7774 34.9157 20.8193Z" fill="#2BB5EF"/>
<path d="M21.9037 16.0483C21.9037 15.0901 21.127 14.3133 20.1688 14.3133C19.2106 14.3133 18.4338 15.0901 18.4338 16.0483C18.4338 17.0064 19.2106 17.7832 20.1688 17.7832C21.127 17.7832 21.9037 17.0064 21.9037 16.0483Z" fill="#16A75C"/>
</svg>
